<svg xmlns="http://www.w3.org/2000/svg" fill-rule="evenodd" stroke-linejoin="round" stroke-miterlimit="2" clip-rule="evenodd" viewBox="0 0 32 33"><g transform="translate(0 .2)"><rect width="32" height="32" fill="none"/><path d="M47,372.199C46.372,371.363 46,370.325 46,369.2C46,366.44 48.24,364.2 51,364.2C53.76,364.2 56,366.44 56,369.2C56,370.325 55.628,371.363 55,372.199L55,379.2C55,379.528 54.839,379.835 54.57,380.022C54.3,380.209 53.956,380.251 53.649,380.136L51,379.142L48.351,380.136C48.044,380.251 47.7,380.209 47.43,380.022C47.161,379.835 47,379.528 47,379.2L47,372.199ZM49,373.783L49,377.757L50.649,377.138C50.875,377.053 51.125,377.053 51.351,377.138L53,377.757L53,373.783C52.387,374.051 51.711,374.2 51,374.2C50.289,374.2 49.613,374.051 49,373.783ZM45,376.2L44,376.2C43.204,376.2 42.441,375.884 41.879,375.321C41.316,374.759 41,373.995 41,373.2L41,355.2C41,354.404 41.316,353.641 41.879,353.079C42.441,352.516 43.204,352.2 44,352.2C47.463,352.2 54.537,352.2 58,352.2C58.796,352.2 59.559,352.516 60.121,353.079C60.684,353.641 61,354.404 61,355.2C61,359.383 61,369.016 61,373.2C61,373.995 60.684,374.759 60.121,375.321C59.559,375.884 58.796,376.2 58,376.2L57,376.2L57,372.803C57.635,371.751 58,370.518 58,369.2C58,365.336 54.863,362.2 51,362.2C47.137,362.2 44,365.336 44,369.2C44,370.518 44.365,371.751 45,372.803L45,376.2ZM46,360.2L56,360.2C56.552,360.2 57,359.752 57,359.2C57,358.648 56.552,358.2 56,358.2L46,358.2C45.448,358.2 45,358.648 45,359.2C45,359.752 45.448,360.2 46,360.2ZM48,356.2L54,356.2C54.552,356.2 55,355.752 55,355.2C55,354.648 54.552,354.2 54,354.2L48,354.2C47.448,354.2 47,354.648 47,355.2C47,355.752 47.448,356.2 48,356.2Z" transform="translate(-35 -350.2)"/></g></svg>